<mxfile host="app.diagrams.net" modified="2023-12-03T12:03:12.386Z" agent="Mozilla/5.0 (Macintosh; Intel Mac OS X 10_15_7) AppleWebKit/605.1.15 (KHTML, like Gecko) Version/17.1.2 Safari/605.1.15" etag="cnvzXzDaiUZe0ywZQs3U" version="22.1.5" type="device">
  <diagram name="Page-1" id="vQP9hLYBUp4dAKwmtIgp">
    <mxGraphModel dx="1749" dy="1166" grid="1" gridSize="10" guides="1" tooltips="1" connect="1" arrows="1" fold="1" page="1" pageScale="1" pageWidth="827" pageHeight="1169" math="0" shadow="0">
      <root>
        <mxCell id="0" />
        <mxCell id="1" parent="0" />
        <mxCell id="AIXgzcjw58ZIXvBcZ5kv-85" style="edgeStyle=orthogonalEdgeStyle;rounded=0;orthogonalLoop=1;jettySize=auto;html=1;entryX=0.5;entryY=0;entryDx=0;entryDy=0;" edge="1" parent="1" source="AIXgzcjw58ZIXvBcZ5kv-57" target="AIXgzcjw58ZIXvBcZ5kv-58">
          <mxGeometry relative="1" as="geometry" />
        </mxCell>
        <mxCell id="AIXgzcjw58ZIXvBcZ5kv-57" value="Start" style="ellipse;whiteSpace=wrap;html=1;" vertex="1" parent="1">
          <mxGeometry x="379" y="50" width="70" height="40" as="geometry" />
        </mxCell>
        <mxCell id="AIXgzcjw58ZIXvBcZ5kv-111" style="edgeStyle=orthogonalEdgeStyle;rounded=0;orthogonalLoop=1;jettySize=auto;html=1;entryX=0;entryY=0.5;entryDx=0;entryDy=0;" edge="1" parent="1" source="AIXgzcjw58ZIXvBcZ5kv-58" target="AIXgzcjw58ZIXvBcZ5kv-59">
          <mxGeometry relative="1" as="geometry">
            <Array as="points">
              <mxPoint x="272" y="180" />
              <mxPoint x="272" y="290" />
            </Array>
          </mxGeometry>
        </mxCell>
        <mxCell id="AIXgzcjw58ZIXvBcZ5kv-58" value="Enter the number of rows" style="shape=parallelogram;perimeter=parallelogramPerimeter;whiteSpace=wrap;html=1;fixedSize=1;" vertex="1" parent="1">
          <mxGeometry x="304" y="150" width="220" height="60" as="geometry" />
        </mxCell>
        <mxCell id="AIXgzcjw58ZIXvBcZ5kv-112" style="edgeStyle=orthogonalEdgeStyle;rounded=0;orthogonalLoop=1;jettySize=auto;html=1;entryX=0;entryY=0.5;entryDx=0;entryDy=0;" edge="1" parent="1" source="AIXgzcjw58ZIXvBcZ5kv-59" target="AIXgzcjw58ZIXvBcZ5kv-60">
          <mxGeometry relative="1" as="geometry" />
        </mxCell>
        <mxCell id="AIXgzcjw58ZIXvBcZ5kv-59" value="i = 1" style="rounded=0;whiteSpace=wrap;html=1;" vertex="1" parent="1">
          <mxGeometry x="292.5" y="270" width="90" height="40" as="geometry" />
        </mxCell>
        <mxCell id="AIXgzcjw58ZIXvBcZ5kv-68" style="edgeStyle=orthogonalEdgeStyle;rounded=0;orthogonalLoop=1;jettySize=auto;html=1;" edge="1" parent="1" source="AIXgzcjw58ZIXvBcZ5kv-60" target="AIXgzcjw58ZIXvBcZ5kv-62">
          <mxGeometry relative="1" as="geometry" />
        </mxCell>
        <mxCell id="AIXgzcjw58ZIXvBcZ5kv-60" value="j = 0" style="rounded=0;whiteSpace=wrap;html=1;" vertex="1" parent="1">
          <mxGeometry x="425" y="270" width="90" height="40" as="geometry" />
        </mxCell>
        <mxCell id="AIXgzcjw58ZIXvBcZ5kv-67" style="edgeStyle=orthogonalEdgeStyle;rounded=0;orthogonalLoop=1;jettySize=auto;html=1;" edge="1" parent="1" source="AIXgzcjw58ZIXvBcZ5kv-62" target="AIXgzcjw58ZIXvBcZ5kv-63">
          <mxGeometry relative="1" as="geometry" />
        </mxCell>
        <mxCell id="AIXgzcjw58ZIXvBcZ5kv-62" value="Print&lt;br&gt;&lt;span style=&quot;white-space: pre;&quot;&gt;White Space&lt;br&gt;&lt;/span&gt;" style="shape=parallelogram;perimeter=parallelogramPerimeter;whiteSpace=wrap;html=1;fixedSize=1;" vertex="1" parent="1">
          <mxGeometry x="270" y="360" width="220" height="60" as="geometry" />
        </mxCell>
        <mxCell id="AIXgzcjw58ZIXvBcZ5kv-66" style="edgeStyle=orthogonalEdgeStyle;rounded=0;orthogonalLoop=1;jettySize=auto;html=1;entryX=0;entryY=0.5;entryDx=0;entryDy=0;" edge="1" parent="1" source="AIXgzcjw58ZIXvBcZ5kv-63" target="AIXgzcjw58ZIXvBcZ5kv-64">
          <mxGeometry relative="1" as="geometry" />
        </mxCell>
        <mxCell id="AIXgzcjw58ZIXvBcZ5kv-63" value="j++" style="rounded=0;whiteSpace=wrap;html=1;" vertex="1" parent="1">
          <mxGeometry x="320" y="465" width="90" height="40" as="geometry" />
        </mxCell>
        <mxCell id="AIXgzcjw58ZIXvBcZ5kv-65" style="edgeStyle=orthogonalEdgeStyle;rounded=0;orthogonalLoop=1;jettySize=auto;html=1;entryX=1;entryY=0.5;entryDx=0;entryDy=0;" edge="1" parent="1" source="AIXgzcjw58ZIXvBcZ5kv-64" target="AIXgzcjw58ZIXvBcZ5kv-62">
          <mxGeometry relative="1" as="geometry">
            <Array as="points">
              <mxPoint x="560" y="390" />
            </Array>
          </mxGeometry>
        </mxCell>
        <mxCell id="AIXgzcjw58ZIXvBcZ5kv-70" value="Yes" style="edgeLabel;html=1;align=center;verticalAlign=middle;resizable=0;points=[];" vertex="1" connectable="0" parent="AIXgzcjw58ZIXvBcZ5kv-65">
          <mxGeometry x="0.1947" y="-1" relative="1" as="geometry">
            <mxPoint as="offset" />
          </mxGeometry>
        </mxCell>
        <mxCell id="AIXgzcjw58ZIXvBcZ5kv-72" style="edgeStyle=orthogonalEdgeStyle;rounded=0;orthogonalLoop=1;jettySize=auto;html=1;entryX=0.5;entryY=0;entryDx=0;entryDy=0;" edge="1" parent="1" source="AIXgzcjw58ZIXvBcZ5kv-64" target="AIXgzcjw58ZIXvBcZ5kv-71">
          <mxGeometry relative="1" as="geometry" />
        </mxCell>
        <mxCell id="AIXgzcjw58ZIXvBcZ5kv-73" value="No" style="edgeLabel;html=1;align=center;verticalAlign=middle;resizable=0;points=[];" vertex="1" connectable="0" parent="AIXgzcjw58ZIXvBcZ5kv-72">
          <mxGeometry x="-0.146" relative="1" as="geometry">
            <mxPoint as="offset" />
          </mxGeometry>
        </mxCell>
        <mxCell id="AIXgzcjw58ZIXvBcZ5kv-64" value="If&lt;br&gt;j &amp;lt;= number of rows - i" style="rhombus;whiteSpace=wrap;html=1;" vertex="1" parent="1">
          <mxGeometry x="460" y="420" width="200" height="130" as="geometry" />
        </mxCell>
        <mxCell id="AIXgzcjw58ZIXvBcZ5kv-75" style="edgeStyle=orthogonalEdgeStyle;rounded=0;orthogonalLoop=1;jettySize=auto;html=1;entryX=1;entryY=0.5;entryDx=0;entryDy=0;" edge="1" parent="1" source="AIXgzcjw58ZIXvBcZ5kv-71" target="AIXgzcjw58ZIXvBcZ5kv-74">
          <mxGeometry relative="1" as="geometry" />
        </mxCell>
        <mxCell id="AIXgzcjw58ZIXvBcZ5kv-71" value="j = 1" style="rounded=0;whiteSpace=wrap;html=1;" vertex="1" parent="1">
          <mxGeometry x="515" y="610" width="90" height="40" as="geometry" />
        </mxCell>
        <mxCell id="AIXgzcjw58ZIXvBcZ5kv-77" style="edgeStyle=orthogonalEdgeStyle;rounded=0;orthogonalLoop=1;jettySize=auto;html=1;entryX=1;entryY=0.5;entryDx=0;entryDy=0;" edge="1" parent="1" source="AIXgzcjw58ZIXvBcZ5kv-74" target="AIXgzcjw58ZIXvBcZ5kv-76">
          <mxGeometry relative="1" as="geometry" />
        </mxCell>
        <mxCell id="AIXgzcjw58ZIXvBcZ5kv-74" value="Print&lt;br&gt;&lt;span style=&quot;white-space: pre;&quot;&gt;Alphabet&lt;br&gt;&lt;/span&gt;" style="shape=parallelogram;perimeter=parallelogramPerimeter;whiteSpace=wrap;html=1;fixedSize=1;" vertex="1" parent="1">
          <mxGeometry x="255" y="600" width="220" height="60" as="geometry" />
        </mxCell>
        <mxCell id="AIXgzcjw58ZIXvBcZ5kv-79" style="edgeStyle=orthogonalEdgeStyle;rounded=0;orthogonalLoop=1;jettySize=auto;html=1;entryX=0;entryY=0.5;entryDx=0;entryDy=0;" edge="1" parent="1" source="AIXgzcjw58ZIXvBcZ5kv-76" target="AIXgzcjw58ZIXvBcZ5kv-78">
          <mxGeometry relative="1" as="geometry">
            <Array as="points">
              <mxPoint x="155" y="755" />
            </Array>
          </mxGeometry>
        </mxCell>
        <mxCell id="AIXgzcjw58ZIXvBcZ5kv-76" value="j++" style="rounded=0;whiteSpace=wrap;html=1;" vertex="1" parent="1">
          <mxGeometry x="110" y="610" width="90" height="40" as="geometry" />
        </mxCell>
        <mxCell id="AIXgzcjw58ZIXvBcZ5kv-80" style="edgeStyle=orthogonalEdgeStyle;rounded=0;orthogonalLoop=1;jettySize=auto;html=1;entryX=0.5;entryY=1;entryDx=0;entryDy=0;" edge="1" parent="1" source="AIXgzcjw58ZIXvBcZ5kv-78" target="AIXgzcjw58ZIXvBcZ5kv-74">
          <mxGeometry relative="1" as="geometry" />
        </mxCell>
        <mxCell id="AIXgzcjw58ZIXvBcZ5kv-81" value="Yes" style="edgeLabel;html=1;align=center;verticalAlign=middle;resizable=0;points=[];" vertex="1" connectable="0" parent="AIXgzcjw58ZIXvBcZ5kv-80">
          <mxGeometry x="-0.2593" y="-1" relative="1" as="geometry">
            <mxPoint as="offset" />
          </mxGeometry>
        </mxCell>
        <mxCell id="AIXgzcjw58ZIXvBcZ5kv-83" style="edgeStyle=orthogonalEdgeStyle;rounded=0;orthogonalLoop=1;jettySize=auto;html=1;entryX=0;entryY=0.5;entryDx=0;entryDy=0;" edge="1" parent="1" source="AIXgzcjw58ZIXvBcZ5kv-78" target="AIXgzcjw58ZIXvBcZ5kv-82">
          <mxGeometry relative="1" as="geometry" />
        </mxCell>
        <mxCell id="AIXgzcjw58ZIXvBcZ5kv-84" value="No" style="edgeLabel;html=1;align=center;verticalAlign=middle;resizable=0;points=[];" vertex="1" connectable="0" parent="AIXgzcjw58ZIXvBcZ5kv-83">
          <mxGeometry x="0.0825" y="-3" relative="1" as="geometry">
            <mxPoint as="offset" />
          </mxGeometry>
        </mxCell>
        <mxCell id="AIXgzcjw58ZIXvBcZ5kv-78" value="If&lt;br&gt;j &amp;lt;= i" style="rhombus;whiteSpace=wrap;html=1;" vertex="1" parent="1">
          <mxGeometry x="292.5" y="710" width="145" height="90" as="geometry" />
        </mxCell>
        <mxCell id="AIXgzcjw58ZIXvBcZ5kv-101" style="edgeStyle=orthogonalEdgeStyle;rounded=0;orthogonalLoop=1;jettySize=auto;html=1;entryX=0.5;entryY=0;entryDx=0;entryDy=0;" edge="1" parent="1" source="AIXgzcjw58ZIXvBcZ5kv-82" target="AIXgzcjw58ZIXvBcZ5kv-86">
          <mxGeometry relative="1" as="geometry">
            <Array as="points">
              <mxPoint x="590" y="840" />
              <mxPoint x="562" y="840" />
            </Array>
          </mxGeometry>
        </mxCell>
        <mxCell id="AIXgzcjw58ZIXvBcZ5kv-82" value="j = i - 1" style="rounded=0;whiteSpace=wrap;html=1;" vertex="1" parent="1">
          <mxGeometry x="515" y="735" width="90" height="40" as="geometry" />
        </mxCell>
        <mxCell id="AIXgzcjw58ZIXvBcZ5kv-88" style="edgeStyle=orthogonalEdgeStyle;rounded=0;orthogonalLoop=1;jettySize=auto;html=1;entryX=1;entryY=0.5;entryDx=0;entryDy=0;" edge="1" parent="1" source="AIXgzcjw58ZIXvBcZ5kv-86" target="AIXgzcjw58ZIXvBcZ5kv-87">
          <mxGeometry relative="1" as="geometry" />
        </mxCell>
        <mxCell id="AIXgzcjw58ZIXvBcZ5kv-89" value="Yes" style="edgeLabel;html=1;align=center;verticalAlign=middle;resizable=0;points=[];" vertex="1" connectable="0" parent="AIXgzcjw58ZIXvBcZ5kv-88">
          <mxGeometry x="-0.0145" y="-1" relative="1" as="geometry">
            <mxPoint as="offset" />
          </mxGeometry>
        </mxCell>
        <mxCell id="AIXgzcjw58ZIXvBcZ5kv-93" style="edgeStyle=orthogonalEdgeStyle;rounded=0;orthogonalLoop=1;jettySize=auto;html=1;entryX=0.5;entryY=1;entryDx=0;entryDy=0;" edge="1" parent="1" source="AIXgzcjw58ZIXvBcZ5kv-86" target="AIXgzcjw58ZIXvBcZ5kv-91">
          <mxGeometry relative="1" as="geometry">
            <Array as="points">
              <mxPoint x="562" y="970" />
              <mxPoint x="182" y="970" />
            </Array>
          </mxGeometry>
        </mxCell>
        <mxCell id="AIXgzcjw58ZIXvBcZ5kv-100" value="No" style="edgeLabel;html=1;align=center;verticalAlign=middle;resizable=0;points=[];" vertex="1" connectable="0" parent="AIXgzcjw58ZIXvBcZ5kv-93">
          <mxGeometry x="-0.0728" y="4" relative="1" as="geometry">
            <mxPoint as="offset" />
          </mxGeometry>
        </mxCell>
        <mxCell id="AIXgzcjw58ZIXvBcZ5kv-86" value="If&lt;br&gt;j = 0" style="rhombus;whiteSpace=wrap;html=1;" vertex="1" parent="1">
          <mxGeometry x="490" y="860" width="145" height="90" as="geometry" />
        </mxCell>
        <mxCell id="AIXgzcjw58ZIXvBcZ5kv-90" style="edgeStyle=orthogonalEdgeStyle;rounded=0;orthogonalLoop=1;jettySize=auto;html=1;entryX=0.5;entryY=1;entryDx=0;entryDy=0;" edge="1" parent="1" source="AIXgzcjw58ZIXvBcZ5kv-87" target="AIXgzcjw58ZIXvBcZ5kv-82">
          <mxGeometry relative="1" as="geometry">
            <Array as="points">
              <mxPoint x="369" y="810" />
              <mxPoint x="560" y="810" />
            </Array>
          </mxGeometry>
        </mxCell>
        <mxCell id="AIXgzcjw58ZIXvBcZ5kv-87" value="j--" style="rounded=0;whiteSpace=wrap;html=1;" vertex="1" parent="1">
          <mxGeometry x="324" y="885" width="90" height="40" as="geometry" />
        </mxCell>
        <mxCell id="AIXgzcjw58ZIXvBcZ5kv-96" style="edgeStyle=orthogonalEdgeStyle;rounded=0;orthogonalLoop=1;jettySize=auto;html=1;entryX=0;entryY=0.5;entryDx=0;entryDy=0;" edge="1" parent="1" source="AIXgzcjw58ZIXvBcZ5kv-91" target="AIXgzcjw58ZIXvBcZ5kv-94">
          <mxGeometry relative="1" as="geometry">
            <Array as="points">
              <mxPoint x="52" y="905" />
              <mxPoint x="52" y="1060" />
            </Array>
          </mxGeometry>
        </mxCell>
        <mxCell id="AIXgzcjw58ZIXvBcZ5kv-91" value="Print&lt;br&gt;&lt;span style=&quot;white-space: pre;&quot;&gt;Alphabet&lt;br&gt;&lt;/span&gt;" style="shape=parallelogram;perimeter=parallelogramPerimeter;whiteSpace=wrap;html=1;fixedSize=1;" vertex="1" parent="1">
          <mxGeometry x="72.5" y="875" width="220" height="60" as="geometry" />
        </mxCell>
        <mxCell id="AIXgzcjw58ZIXvBcZ5kv-102" style="edgeStyle=orthogonalEdgeStyle;rounded=0;orthogonalLoop=1;jettySize=auto;html=1;entryX=0;entryY=0.5;entryDx=0;entryDy=0;" edge="1" parent="1" source="AIXgzcjw58ZIXvBcZ5kv-94" target="AIXgzcjw58ZIXvBcZ5kv-97">
          <mxGeometry relative="1" as="geometry" />
        </mxCell>
        <mxCell id="AIXgzcjw58ZIXvBcZ5kv-94" value="j--" style="rounded=0;whiteSpace=wrap;html=1;" vertex="1" parent="1">
          <mxGeometry x="110" y="1040" width="90" height="40" as="geometry" />
        </mxCell>
        <mxCell id="AIXgzcjw58ZIXvBcZ5kv-98" style="edgeStyle=orthogonalEdgeStyle;rounded=0;orthogonalLoop=1;jettySize=auto;html=1;entryX=1;entryY=0.5;entryDx=0;entryDy=0;" edge="1" parent="1" source="AIXgzcjw58ZIXvBcZ5kv-97" target="AIXgzcjw58ZIXvBcZ5kv-82">
          <mxGeometry relative="1" as="geometry">
            <Array as="points">
              <mxPoint x="680" y="1060" />
              <mxPoint x="680" y="755" />
            </Array>
          </mxGeometry>
        </mxCell>
        <mxCell id="AIXgzcjw58ZIXvBcZ5kv-99" value="Yes" style="edgeLabel;html=1;align=center;verticalAlign=middle;resizable=0;points=[];" vertex="1" connectable="0" parent="AIXgzcjw58ZIXvBcZ5kv-98">
          <mxGeometry x="-0.6135" y="-2" relative="1" as="geometry">
            <mxPoint as="offset" />
          </mxGeometry>
        </mxCell>
        <mxCell id="AIXgzcjw58ZIXvBcZ5kv-104" style="edgeStyle=orthogonalEdgeStyle;rounded=0;orthogonalLoop=1;jettySize=auto;html=1;" edge="1" parent="1" source="AIXgzcjw58ZIXvBcZ5kv-97" target="AIXgzcjw58ZIXvBcZ5kv-103">
          <mxGeometry relative="1" as="geometry">
            <Array as="points">
              <mxPoint x="376" y="1120" />
            </Array>
          </mxGeometry>
        </mxCell>
        <mxCell id="AIXgzcjw58ZIXvBcZ5kv-118" value="No" style="edgeLabel;html=1;align=center;verticalAlign=middle;resizable=0;points=[];" vertex="1" connectable="0" parent="AIXgzcjw58ZIXvBcZ5kv-104">
          <mxGeometry x="0.0083" relative="1" as="geometry">
            <mxPoint x="-1" as="offset" />
          </mxGeometry>
        </mxCell>
        <mxCell id="AIXgzcjw58ZIXvBcZ5kv-97" value="If&lt;br&gt;j &amp;gt;= 1" style="rhombus;whiteSpace=wrap;html=1;" vertex="1" parent="1">
          <mxGeometry x="304" y="1015" width="145" height="90" as="geometry" />
        </mxCell>
        <mxCell id="AIXgzcjw58ZIXvBcZ5kv-106" style="edgeStyle=orthogonalEdgeStyle;rounded=0;orthogonalLoop=1;jettySize=auto;html=1;entryX=0.5;entryY=1;entryDx=0;entryDy=0;" edge="1" parent="1" source="AIXgzcjw58ZIXvBcZ5kv-103" target="AIXgzcjw58ZIXvBcZ5kv-105">
          <mxGeometry relative="1" as="geometry">
            <Array as="points">
              <mxPoint x="690" y="1070" />
              <mxPoint x="755" y="1070" />
            </Array>
          </mxGeometry>
        </mxCell>
        <mxCell id="AIXgzcjw58ZIXvBcZ5kv-103" value="Print&lt;br&gt;&lt;span style=&quot;white-space: pre;&quot;&gt;Alphabet&lt;br&gt;&lt;/span&gt;" style="shape=parallelogram;perimeter=parallelogramPerimeter;whiteSpace=wrap;html=1;fixedSize=1;" vertex="1" parent="1">
          <mxGeometry x="580" y="1090" width="220" height="60" as="geometry" />
        </mxCell>
        <mxCell id="AIXgzcjw58ZIXvBcZ5kv-110" style="edgeStyle=orthogonalEdgeStyle;rounded=0;orthogonalLoop=1;jettySize=auto;html=1;entryX=0.5;entryY=1;entryDx=0;entryDy=0;" edge="1" parent="1" source="AIXgzcjw58ZIXvBcZ5kv-105" target="AIXgzcjw58ZIXvBcZ5kv-109">
          <mxGeometry relative="1" as="geometry" />
        </mxCell>
        <mxCell id="AIXgzcjw58ZIXvBcZ5kv-105" value="j++" style="rounded=0;whiteSpace=wrap;html=1;" vertex="1" parent="1">
          <mxGeometry x="710" y="975" width="90" height="40" as="geometry" />
        </mxCell>
        <mxCell id="AIXgzcjw58ZIXvBcZ5kv-113" style="edgeStyle=orthogonalEdgeStyle;rounded=0;orthogonalLoop=1;jettySize=auto;html=1;entryX=1;entryY=0.5;entryDx=0;entryDy=0;" edge="1" parent="1" source="AIXgzcjw58ZIXvBcZ5kv-109" target="AIXgzcjw58ZIXvBcZ5kv-60">
          <mxGeometry relative="1" as="geometry">
            <Array as="points">
              <mxPoint x="712" y="290" />
            </Array>
          </mxGeometry>
        </mxCell>
        <mxCell id="AIXgzcjw58ZIXvBcZ5kv-114" value="Yes" style="edgeLabel;html=1;align=center;verticalAlign=middle;resizable=0;points=[];" vertex="1" connectable="0" parent="AIXgzcjw58ZIXvBcZ5kv-113">
          <mxGeometry x="-0.3252" relative="1" as="geometry">
            <mxPoint as="offset" />
          </mxGeometry>
        </mxCell>
        <mxCell id="AIXgzcjw58ZIXvBcZ5kv-116" style="edgeStyle=orthogonalEdgeStyle;rounded=0;orthogonalLoop=1;jettySize=auto;html=1;entryX=1;entryY=0.5;entryDx=0;entryDy=0;" edge="1" parent="1" source="AIXgzcjw58ZIXvBcZ5kv-109" target="AIXgzcjw58ZIXvBcZ5kv-115">
          <mxGeometry relative="1" as="geometry" />
        </mxCell>
        <mxCell id="AIXgzcjw58ZIXvBcZ5kv-117" value="No" style="edgeLabel;html=1;align=center;verticalAlign=middle;resizable=0;points=[];" vertex="1" connectable="0" parent="AIXgzcjw58ZIXvBcZ5kv-116">
          <mxGeometry x="-0.0938" relative="1" as="geometry">
            <mxPoint x="-1" as="offset" />
          </mxGeometry>
        </mxCell>
        <mxCell id="AIXgzcjw58ZIXvBcZ5kv-109" value="If&lt;br&gt;j &amp;lt;= number of rows" style="rhombus;whiteSpace=wrap;html=1;" vertex="1" parent="1">
          <mxGeometry x="623" y="640" width="177" height="110" as="geometry" />
        </mxCell>
        <mxCell id="AIXgzcjw58ZIXvBcZ5kv-115" value="Stop" style="ellipse;whiteSpace=wrap;html=1;" vertex="1" parent="1">
          <mxGeometry x="454" y="675" width="70" height="40" as="geometry" />
        </mxCell>
      </root>
    </mxGraphModel>
  </diagram>
</mxfile>
